<?xml version="1.0" encoding="utf-8"?>
<svg viewBox="0 0 1200 1200" xmlns="http://www.w3.org/2000/svg">
  <ellipse style="fill-rule: nonzero; paint-order: fill; stroke: rgb(51, 51, 51); stroke-width: 60px; fill: rgb(255, 105, 180);" cx="600" cy="600" rx="566" ry="566"/>
  <path d="M 143.1330688999625 291.9599826660156 Q 141.20706889996248 291.9599826660156 141.82066511495955 289.49898266601565 Q 142.4075832336524 287.1449826660156 145.2406385079959 283.50698266601563 L 173.30814928056913 253.76098266601562 Q 186.24594560750933 240.06498266601562 193.0345495044554 231.29098266601562 Q 199.82315340140147 222.51698266601562 200.73020867574496 218.87898266601562 Q 201.15705821661248 217.16698266601563 200.08648298704625 216.31098266601563 Q 199.01590775748002 215.4549826660156 197.3839420463927 215.13398266601564 Q 195.75197633530536 214.8129826660156 194.25397633530534 214.8129826660156 Q 185.15897633530534 214.8129826660156 166.1204543196664 225.94098266601563 Q 160.74578952684402 229.0439826660156 155.9333780598921 232.89598266601564 Q 151.12096659294016 236.74798266601562 146.71016464446714 241.13498266601562 Q 138.10256074752107 249.90898266601562 136.60858735448474 255.90098266601564 Q 135.46142921340325 260.50198266601564 139.50132634666528 261.4649826660156 Q 140.9996139614484 261.89298266601566 143.0326139614484 261.89298266601566 Q 146.8846139614484 261.89298266601566 151.21681969492437 259.9669826660156 Q 155.54902542840034 258.0409826660156 159.9340121249185 255.0449826660156 Q 163.30293024361134 252.69098266601563 163.73093024361134 252.69098266601563 Q 164.15893024361134 252.69098266601563 163.86518356948181 253.43998266601562 Q 162.66294354709316 255.68698266601564 159.69505971731297 257.71998266601565 Q 156.72717588753278 259.7529826660156 152.88966539481737 261.4114826660156 Q 149.05215490210196 263.0699826660156 145.3478910835161 263.9794826660156 Q 141.64362726493022 264.88898266601564 138.96862726493023 264.88898266601564 Q 134.68862726493023 264.88898266601564 132.02552823916673 262.6954826660156 Q 129.36242921340326 260.50198266601564 130.42955306557207 256.2219826660156 Q 132.0569169401295 249.69498266601562 142.02826751120512 240.17198266601562 Q 151.59858379336805 230.96998266601562 164.08601624575084 223.8009826660156 Q 169.220002942269 220.80498266601563 175.78529439802662 218.07648266601564 Q 182.35058585378425 215.34798266601564 188.78277444280388 213.5824826660156 Q 195.21496303182352 211.81698266601563 199.9229630318235 211.81698266601563 Q 208.37596303182352 211.81698266601563 206.98870202400406 217.38098266601563 Q 205.30798195683818 224.12198266601564 191.03455512598822 240.59998266601562 Q 181.0376769177409 251.94198266601563 165.3726748573247 267.56398266601565 Q 152.40762520451406 280.51098266601565 152.30062520451406 280.51098266601565 Q 152.62162520451406 280.51098266601565 165.32046912384874 269.48998266601564 Q 173.12686728731885 262.6419826660156 179.877611150682 257.2384826660156 Q 186.6283550140451 251.83498266601563 192.24312267360548 247.76898266601563 Q 194.99700650338565 245.73598266601562 198.96733224805592 242.68648266601562 Q 202.9376579927262 239.63698266601563 208.2314256522866 235.57098266601562 Q 212.83012473402164 232.14698266601562 217.10825523793136 229.36498266601564 Q 221.38638574184108 226.58298266601562 224.3823857418411 226.58298266601562 Q 227.4853857418411 226.58298266601562 228.07489239358202 228.08098266601564 Q 215.1895894149009 240.27898266601562 202.22770352470454 257.93398266601565 Q 192.98068816080655 270.5599826660156 191.35332428624912 277.0869826660156 Q 190.39291281929718 280.93898266601565 191.99906327842965 282.65098266601564 Q 193.6052137375621 284.3629826660156 196.92221373756212 284.3629826660156 Q 200.56021373756212 284.3629826660156 205.07959756734232 282.3299826660156 Q 209.5989813971225 280.29698266601565 214.35832428624911 277.0869826660156 Q 219.11766717537571 273.87698266601564 223.422044353415 270.34598266601563 Q 238.82170352470453 257.93398266601565 249.6992465257743 243.48898266601563 Q 258.19812473402163 232.14698266601562 259.8788448011875 225.40598266601563 Q 260.03891337901285 224.76398266601564 260.11880386053394 224.2289826660156 Q 260.19869434205503 223.69398266601564 260.19840672727196 223.26598266601562 Q 257.9514067272719 223.26598266601562 255.97032484596477 220.91198266601563 Q 254.6854620016154 219.6279826660156 255.03227725357027 218.23698266601562 Q 255.35241440922093 216.95298266601563 256.6358391796547 216.09698266601563 Q 257.91926395008846 215.2409826660156 259.3102639500885 215.2409826660156 Q 261.3432639500885 215.2409826660156 261.8527363129167 217.05998266601563 Q 262.0673115424829 217.91598266601562 263.0311743868323 219.19998266601561 Q 263.67374961639854 220.0559826660156 263.4600372311817 220.48398266601563 Q 263.86193436444364 221.44698266601563 265.3599343644437 221.44698266601563 Q 266.8579343644437 221.44698266601563 268.51557152009434 220.16298266601564 Q 270.17320867574495 218.87898266601562 271.77820867574496 218.87898266601562 Q 272.63420867574496 218.87898266601562 272.47414009791964 219.52098266601564 Q 272.1806810385732 220.69798266601563 269.88090007553103 221.76798266601563 Q 268.6241534014015 222.51698266601562 267.072797208793 222.73098266601562 Q 266.1901191124888 222.83798266601562 265.3207800643367 222.89148266601563 Q 264.4514410161846 222.94498266601562 263.64879720879304 222.73098266601562 Q 263.86567335662426 227.01098266601562 263.358789526844 229.0439826660156 Q 261.2245418225064 237.6039826660156 249.7044235918704 251.19298266601564 Q 243.93102542840035 258.0409826660156 237.16737393905976 264.1399826660156 Q 230.40372244971923 270.2389826660156 222.5428176345082 275.5889826660156 Q 206.8746518114777 286.5029826660156 196.8166518114777 286.5029826660156 Q 185.7956518114777 286.5029826660156 188.35674905668287 276.2309826660156 Q 189.55726339037278 271.4159826660156 193.12425392786545 265.26348266601565 Q 196.69124446535812 259.1109826660156 200.99389595469867 253.01198266601563 L 212.88635707446127 236.21298266601562 Q 207.27130180011778 239.85098266601562 203.75522272957704 242.15148266601562 Q 200.2391436590363 244.45198266601562 197.859472214473 246.05698266601564 Q 195.4798007699097 247.66198266601563 193.30079027719427 249.32048266601564 Q 191.12177978447886 250.9789826660156 188.073861665786 253.33298266601562 Q 184.7319092581805 256.0079826660156 178.99737778003427 260.9834826660156 Q 173.26284630188803 265.95898266601563 165.43005765689682 273.3419826660156 L 149.22976798169753 288.5359826660156 Q 147.83963082604689 289.8199826660156 146.1818498630047 290.8899826660156 Q 144.5240688999625 291.9599826660156 143.1330688999625 291.9599826660156 Z" transform="matrix(7.986133098602295, 0.0004610000178217888, -0.13594397902488708, 8.988579750061035, -961.1981811523438, -1658.144775390625)" style="fill: rgb(51, 51, 51); white-space: pre;"/>
</svg>