<?xml version="1.0" standalone="no"?>
<!DOCTYPE svg PUBLIC "-//W3C//DTD SVG 20010904//EN"
 "http://www.w3.org/TR/2001/REC-SVG-20010904/DTD/svg10.dtd">
<svg version="1.0" xmlns="http://www.w3.org/2000/svg"
 width="1024.000000pt" height="1024.000000pt" viewBox="0 0 1024.000000 1024.000000"
 preserveAspectRatio="xMidYMid meet">
<metadata>
Created by potrace 1.14, written by Peter Selinger 2001-2017
</metadata>
<g transform="translate(0.000000,1024.000000) scale(0.100000,-0.100000)"
fill="#000000" stroke="none">
<path d="M4745 10189 c-625 -50 -1207 -202 -1769 -460 -966 -444 -1789 -1212
-2309 -2155 -309 -559 -524 -1232 -596 -1864 -42 -370 -42 -810 0 -1180 92
-805 403 -1633 860 -2290 57 -82 67 -103 73 -153 8 -72 29 -123 64 -160 30
-32 82 -57 117 -57 17 0 51 -31 122 -112 594 -672 1329 -1161 2181 -1452 538
-184 1041 -266 1632 -266 595 0 1070 78 1626 265 1068 360 1978 1057 2599
1990 400 600 665 1264 786 1969 77 450 90 1024 34 1483 -56 452 -189 947 -359
1342 -20 46 -33 87 -29 91 4 4 31 13 58 19 76 18 230 108 295 172 155 152 117
356 -65 352 -96 -1 -174 -34 -285 -119 -106 -81 -164 -96 -175 -46 -3 16 -24
60 -46 97 -22 38 -49 97 -60 131 -31 95 -70 149 -134 185 -41 23 -68 49 -103
98 -143 203 -354 450 -548 645 -868 868 -1985 1378 -3233 1475 -153 12 -586
12 -736 0z m915 -528 c554 -69 1024 -212 1525 -466 121 -61 276 -146 345 -189
487 -306 903 -686 1249 -1143 l69 -92 -19 -51 c-25 -67 -25 -173 0 -240 39
-103 170 -250 268 -302 24 -13 43 -29 43 -36 0 -22 -70 -230 -111 -328 -181
-436 -599 -1087 -1082 -1688 -680 -845 -1640 -1736 -2309 -2142 -137 -83 -350
-188 -453 -222 -190 -63 -368 -69 -471 -16 -69 35 -91 63 -104 132 -49 263
250 894 828 1747 550 812 1055 1456 1611 2059 86 92 157 174 159 181 7 29 -43
130 -87 175 -57 59 -134 89 -246 97 -303 20 -575 -158 -1670 -1092 -236 -202
-554 -469 -705 -593 -151 -125 -371 -309 -489 -411 l-214 -184 149 174 c866
1011 1457 1823 1702 2339 233 491 163 773 -218 877 -101 28 -412 25 -585 -6
-436 -77 -1003 -279 -1565 -560 -990 -494 -2025 -1353 -2625 -2176 -48 -66
-89 -122 -92 -125 -9 -8 6 198 22 324 106 806 435 1597 923 2220 289 368 626
688 1012 958 147 103 327 208 535 313 567 287 1086 431 1755 489 25 2 189 2
365 1 249 -2 356 -8 485 -24z m-717 -1895 c112 -22 177 -59 177 -102 0 -37
-48 -162 -106 -274 -215 -416 -707 -1090 -1419 -1945 -133 -159 -709 -837
-1279 -1505 -571 -668 -1044 -1223 -1052 -1234 -7 -11 -15 -18 -17 -15 -18 20
-143 244 -206 369 -100 197 -184 400 -255 610 -74 222 -98 313 -83 307 91 -35
330 -41 487 -13 524 94 1120 388 1416 699 100 105 170 215 184 287 16 85 -18
158 -84 180 -60 20 -112 -7 -346 -180 -405 -298 -686 -447 -945 -501 -94 -20
-288 -17 -360 5 -126 38 -152 74 -142 200 17 212 191 540 478 902 228 289 648
713 979 990 221 185 527 397 880 611 607 367 1045 559 1410 616 61 10 215 6
283 -7z m4586 -1436 c64 -236 107 -463 138 -725 13 -115 17 -229 17 -485 0
-349 -9 -483 -55 -755 -136 -815 -504 -1599 -1044 -2225 -544 -632 -1214
-1083 -2003 -1350 -477 -161 -959 -240 -1462 -240 -685 0 -1339 148 -1970 445
-490 231 -926 545 -1310 942 -83 87 -155 164 -159 173 -6 11 158 188 671 720
1674 1738 2139 2168 3118 2880 71 52 109 75 99 59 -390 -599 -664 -1036 -826
-1319 -304 -530 -451 -860 -533 -1192 -69 -282 -63 -478 20 -654 51 -106 126
-182 235 -235 99 -48 171 -67 305 -79 537 -47 1193 261 2110 989 703 558 1288
1164 1844 1910 324 435 611 906 731 1198 17 40 33 69 36 65 3 -4 20 -59 38
-122z"/>
</g>
</svg>
